<?xml version="1.0" encoding="UTF-8" standalone="no"?>
<svg
   xmlns:dc="http://purl.org/dc/elements/1.1/"
   xmlns:cc="http://creativecommons.org/ns#"
   xmlns:rdf="http://www.w3.org/1999/02/22-rdf-syntax-ns#"
   xmlns:svg="http://www.w3.org/2000/svg"
   xmlns="http://www.w3.org/2000/svg"
   xmlns:xlink="http://www.w3.org/1999/xlink"
   xmlns:sodipodi="http://sodipodi.sourceforge.net/DTD/sodipodi-0.dtd"
   xmlns:inkscape="http://www.inkscape.org/namespaces/inkscape"
   width="210mm"
   height="297mm"
   viewBox="0 0 210 297"
   version="1.1"
   id="svg8"
   inkscape:version="1.0.2 (e86c8708, 2021-01-15)"
   sodipodi:docname="assets.svg">
  <defs
     id="defs2">
    <linearGradient
       inkscape:collect="always"
       id="linearGradient1393">
      <stop
         style="stop-color:#141414;stop-opacity:1"
         offset="0"
         id="stop1389" />
      <stop
         style="stop-color:#4897c6;stop-opacity:1"
         offset="1"
         id="stop1391" />
    </linearGradient>
    <linearGradient
       inkscape:collect="always"
       id="linearGradient1289">
      <stop
         style="stop-color:#444444;stop-opacity:1"
         offset="0"
         id="stop1285" />
      <stop
         style="stop-color:#3c3c3c;stop-opacity:1"
         offset="1"
         id="stop1287" />
    </linearGradient>
    <linearGradient
       inkscape:collect="always"
       id="linearGradient995">
      <stop
         style="stop-color:#e75c00;stop-opacity:1"
         offset="0"
         id="stop991" />
      <stop
         style="stop-color:#ff7f2a;stop-opacity:1"
         offset="1"
         id="stop993" />
    </linearGradient>
    <linearGradient
       inkscape:collect="always"
       id="linearGradient987">
      <stop
         style="stop-color:#ee5f00;stop-opacity:1"
         offset="0"
         id="stop983" />
      <stop
         style="stop-color:#ff7f2a;stop-opacity:1"
         offset="1"
         id="stop985" />
    </linearGradient>
    <rect
       x="52.269025"
       y="6.6207431"
       width="105.58343"
       height="29.967574"
       id="rect12" />
    <filter
       inkscape:collect="always"
       style="color-interpolation-filters:sRGB"
       id="filter925"
       x="-0.086637179"
       width="1.1732744"
       y="-0.14527171"
       height="1.2905434">
      <feGaussianBlur
         inkscape:collect="always"
         stdDeviation="3.0372839"
         id="feGaussianBlur927" />
    </filter>
    <linearGradient
       inkscape:collect="always"
       xlink:href="#linearGradient987"
       id="linearGradient989"
       x1="76.974861"
       y1="116.25494"
       x2="77.092293"
       y2="112.84949"
       gradientUnits="userSpaceOnUse" />
    <linearGradient
       inkscape:collect="always"
       xlink:href="#linearGradient995"
       id="linearGradient997"
       x1="85.48848"
       y1="133.92804"
       x2="83.433472"
       y2="122.65483"
       gradientUnits="userSpaceOnUse" />
    <linearGradient
       inkscape:collect="always"
       xlink:href="#linearGradient1289"
       id="linearGradient1283"
       x1="63.358967"
       y1="244.067"
       x2="59.86549"
       y2="243.19363"
       gradientUnits="userSpaceOnUse"
       gradientTransform="translate(-25.768594,0.13779997)" />
    <linearGradient
       inkscape:collect="always"
       xlink:href="#linearGradient1289"
       id="linearGradient1337"
       gradientUnits="userSpaceOnUse"
       gradientTransform="translate(24.941795,3.3071993)"
       x1="63.358967"
       y1="244.067"
       x2="59.86549"
       y2="243.19363" />
    <linearGradient
       inkscape:collect="always"
       xlink:href="#linearGradient1393"
       id="linearGradient1395"
       x1="-157.4079"
       y1="1037.1666"
       x2="-157.4079"
       y2="-31.75"
       gradientUnits="userSpaceOnUse"
       gradientTransform="matrix(0.02161988,0,0,1,-393.47186,0)" />
  </defs>
  <sodipodi:namedview
     id="base"
     pagecolor="#ffffff"
     bordercolor="#666666"
     borderopacity="1.0"
     inkscape:pageopacity="0.0"
     inkscape:pageshadow="2"
     inkscape:zoom="0.71454848"
     inkscape:cx="-1666.068"
     inkscape:cy="712.58954"
     inkscape:document-units="mm"
     inkscape:current-layer="g1353"
     inkscape:document-rotation="0"
     showgrid="true"
     showguides="true"
     inkscape:guide-bbox="true"
     inkscape:window-width="1380"
     inkscape:window-height="847"
     inkscape:window-x="50"
     inkscape:window-y="25"
     inkscape:window-maximized="0"
     objecttolerance="1">
    <sodipodi:guide
       position="92.690401,224.86875"
       orientation="0,-1"
       id="guide22" />
    <sodipodi:guide
       position="169.00318,200.825"
       orientation="1,0"
       id="guide24" />
    <inkscape:grid
       type="xygrid"
       id="grid1359"
       dotted="true" />
  </sodipodi:namedview>
  <metadata
     id="metadata5">
    <rdf:RDF>
      <cc:Work
         rdf:about="">
        <dc:format>image/svg+xml</dc:format>
        <dc:type
           rdf:resource="http://purl.org/dc/dcmitype/StillImage" />
        <dc:title></dc:title>
      </cc:Work>
    </rdf:RDF>
  </metadata>
  <g
     inkscape:label="Vrstva 1"
     inkscape:groupmode="layer"
     id="layer1">
    <path
       style="fill:url(#linearGradient1283);fill-opacity:1;stroke:none;stroke-width:0.264583px;stroke-linecap:butt;stroke-linejoin:miter;stroke-opacity:1"
       d="m 40.051685,236.02689 -2.461313,-1.74674 c 0,0 -1.192898,0.1656 -1.984928,1.03216 -0.79203,0.86656 -1.298088,2.59196 -1.826136,4.44624 -0.528048,1.85428 -1.111562,6.66937 -1.111562,6.66937 l 5.240216,1.03216 z"
       id="path1275"
       sodipodi:nodetypes="cczzccc" />
    <path
       style="fill:#b3b3b3;stroke:none;stroke-width:0.264583px;stroke-linecap:butt;stroke-linejoin:miter;stroke-opacity:1"
       d="m 51.008499,238.01181 c -0.534995,-0.37702 -0.852448,-0.62328 -1.587944,-0.39699 -0.735496,0.22629 -1.979032,1.3231 -1.984931,2.22313 -0.0059,0.90003 0.887649,1.46238 1.587945,1.82613 0.700296,0.36375 1.645589,0.60573 2.30252,0.23819 0.656931,-0.36754 1.005309,-1.23812 0.952765,-1.98493 -0.05254,-0.74681 -0.73536,-1.52851 -1.270355,-1.90553 z"
       id="path1273"
       sodipodi:nodetypes="zzzzzzz" />
    <rect
       style="fill:#000080;stroke:none;stroke-width:0.215775"
       id="rect851"
       width="118.82491"
       height="65.510506"
       x="50.178268"
       y="41.118301" />
    <text
       xml:space="preserve"
       id="text10"
       style="fill:black;fill-opacity:1;line-height:1.25;stroke:none;font-family:sans-serif;font-style:normal;font-weight:normal;font-size:10.58333333000000032px;white-space:pre;shape-inside:url(#rect12);" />
    <text
       xml:space="preserve"
       style="font-style:normal;font-weight:normal;font-size:10.5833px;line-height:1.25;font-family:sans-serif;fill:#000000;fill-opacity:1;stroke:none;stroke-width:0.264583"
       x="8.3630447"
       y="16.377626"
       id="text18"><tspan
         sodipodi:role="line"
         id="tspan16"
         x="8.3630447"
         y="16.377626"
         style="stroke-width:0.264583">LD 48</tspan><tspan
         sodipodi:role="line"
         x="8.3630447"
         y="29.60675"
         style="stroke-width:0.264583"
         id="tspan20">deeper and deeper</tspan></text>
    <path
       style="fill:#ffffff;stroke:none;stroke-width:0.264583px;stroke-linecap:butt;stroke-linejoin:miter;stroke-opacity:1;filter:url(#filter925)"
       d="m 69.343569,75.615857 76.312781,-26.13451 c 10.10412,16.60952 10.75808,35.5282 0,50.17826 z"
       id="path26"
       sodipodi:nodetypes="cccc"
       inkscape:export-xdpi="96"
       inkscape:export-ydpi="96" />
    <ellipse
       style="fill:#b3b3b3;fill-opacity:0.176647;stroke:#ffffff;stroke-width:0.202591;stroke-miterlimit:4;stroke-dasharray:none;stroke-opacity:1"
       id="path929"
       cx="60.723072"
       cy="59.90501"
       rx="5.7369695"
       ry="5.8290052"
       inkscape:export-xdpi="96"
       inkscape:export-ydpi="96" />
    <path
       style="fill:#ffffff;stroke:none;stroke-width:0.26458300000000001px;stroke-linecap:butt;stroke-linejoin:miter;stroke-opacity:1;fill-opacity:0.95808381"
       d="m 58.632251,55.320916 c -0.536435,0.08727 -1.127632,0.605826 -1.511697,1.043789 -0.384065,0.437963 -0.667049,1.039931 -0.755849,1.475706 -0.0888,0.435775 -0.142692,0.728324 0.07199,1.007798 0.214682,0.279474 0.496348,0.400043 1.043791,0.359928 0.547443,-0.04012 1.471051,-0.554135 1.943611,-1.0078 0.47256,-0.453665 0.810898,-1.055648 0.863828,-1.511697 0.05293,-0.456049 2.13e-4,-0.685453 -0.287944,-0.971804 -0.288157,-0.286351 -0.831295,-0.483187 -1.36773,-0.39592 z"
       id="path933"
       sodipodi:nodetypes="zzzzzzzzz"
       inkscape:export-xdpi="96"
       inkscape:export-ydpi="96" />
    <path
       style="fill:#ffffff;stroke:none;stroke-width:0.264583px;stroke-linecap:butt;stroke-linejoin:miter;stroke-opacity:1"
       d="m 60.179941,64.643047 c 0,0 1.856746,-0.136588 2.663466,-0.683863 0.826398,-0.560624 1.518735,-1.527726 1.907619,-2.44751 0.380285,-0.899445 0.53989,-2.879423 0.53989,-2.879423 0.127313,-0.05004 0.265524,0.128253 0.323937,0.251949 0.374127,0.792259 0.129852,1.774885 -0.07198,2.627474 -0.189173,0.799115 -0.752881,1.649059 -1.331734,2.231554 -0.571203,0.574797 -1.111555,0.892304 -1.907618,1.043789 -0.696978,0.13263 -2.082449,0.564322 -2.12358,-0.14397 z"
       id="path935"
       sodipodi:nodetypes="sssssssss"
       inkscape:export-xdpi="96"
       inkscape:export-ydpi="96" />
    <g
       id="g1035"
       inkscape:export-filename="/Users/jh/code/my/games/LD48/Components/Fish/LittleFish.png"
       inkscape:export-xdpi="96"
       inkscape:export-ydpi="96">
      <path
         style="fill:url(#linearGradient997);stroke:none;stroke-width:0.26458300000000001px;stroke-linecap:butt;stroke-linejoin:miter;stroke-opacity:1;fill-opacity:1"
         d="m 57.009667,129.08618 c 0.104855,-1.31934 0.718754,-3.45379 2.34147,-5.70097 1.622716,-2.24718 4.640869,-5.47403 7.940632,-6.8208 3.299763,-1.34677 7.066332,-1.20594 10.892917,-0.71262 3.826585,0.49332 9.011154,2.49662 11.605541,3.86851 2.594387,1.37189 4.275724,3.2577 4.275724,3.2577 0,0 1.034928,-0.72969 1.730651,-1.22164 0.695723,-0.49195 1.563482,-1.80521 2.44327,-1.73065 0.879788,0.0746 1.134042,0.67684 1.62885,1.62885 0.494808,0.95201 0.593318,2.52221 0.712618,4.07212 0.1193,1.54991 0.34072,4.04837 -0.1018,5.19195 -0.44252,1.14358 -0.122,1.35137 -1.425243,1.62885 -1.303247,0.27748 -5.293754,-2.44327 -5.293754,-2.44327 0,0 -2.777067,2.50089 -4.988346,3.76671 -2.211279,1.26582 -5.453965,2.69328 -8.347845,3.4613 -2.89388,0.76802 -5.883342,1.22304 -8.856858,1.11983 -2.973516,-0.10321 -6.623494,-0.62872 -8.755057,-1.73065 -2.131563,-1.10193 -3.106978,-2.74142 -3.970316,-3.76671 -0.863338,-1.02529 -1.136731,-1.47323 -1.425242,-2.13786 -0.288511,-0.66463 -0.512067,-0.41131 -0.407212,-1.73065 z"
         id="path955"
         sodipodi:nodetypes="zzzzzczzzzzzczzzzzzz" />
      <path
         style="fill:url(#linearGradient989);stroke:none;stroke-width:0.26458300000000001px;stroke-linecap:butt;stroke-linejoin:miter;stroke-opacity:1;fill-opacity:1"
         d="m 65.19364,117.88041 c 0,0 0.128938,-3.52876 0.712621,-4.68294 0.583683,-1.15418 0.990231,-1.45391 2.137862,-2.13786 1.147631,-0.68395 3.085834,-1.19426 4.784741,-1.42525 1.698907,-0.23099 3.719802,-0.16308 5.293754,0.10181 1.573952,0.26489 2.780907,0.81115 4.07212,1.32344 1.291213,0.51229 3.181005,1.18521 3.664906,1.73065 0.483901,0.54544 9.63e-4,-0.19762 0.101803,0.3054 0.10084,0.50302 0.329547,1.93351 0.203605,2.74869 -0.125942,0.81518 -0.814422,2.03606 -0.814422,2.03606 0,0 -5.936772,-1.70474 -8.347845,-2.03606 -2.411073,-0.33132 -4.365347,-0.39323 -6.006375,-0.20361 -1.641028,0.18962 -2.804132,0.60857 -3.766711,1.01803 -0.962579,0.40946 -2.036059,1.22164 -2.036059,1.22164 z"
         id="path957"
         sodipodi:nodetypes="czzzzzzzzczzzc" />
      <path
         style="fill:#ff7f2a;stroke:none;stroke-width:0.26458300000000001px;stroke-linecap:butt;stroke-linejoin:miter;stroke-opacity:1"
         d="m 87.448757,118.49867 c 0,0 0.731851,-1.53224 1.527045,-1.73065 0.795194,-0.19841 1.815068,0.41772 2.443271,0.91622 0.628203,0.4985 1.050457,1.14537 1.221637,1.83246 0.17118,0.68709 -0.203605,2.03606 -0.203605,2.03606 z"
         id="path959"
         sodipodi:nodetypes="czzzcc" />
      <path
         style="fill:#ffffff;stroke:none;stroke-width:0.264583px;stroke-linecap:butt;stroke-linejoin:miter;stroke-opacity:1"
         d="m 64.034072,122.16358 c -0.822314,0.2149 -1.839862,0.77324 -2.341467,1.42523 -0.501605,0.65199 -0.853466,1.78873 -0.509016,2.74868 0.34445,0.95995 1.399195,1.85746 2.545075,2.13787 1.14588,0.28041 2.825292,-0.0819 3.664908,-0.81443 0.839616,-0.73252 1.161572,-1.76152 1.018029,-2.74868 -0.143543,-0.98716 -0.921134,-2.02618 -1.832454,-2.44327 -0.91132,-0.41709 -1.722761,-0.52031 -2.545075,-0.3054 z"
         id="path963"
         sodipodi:nodetypes="zzzzzzzz" />
      <path
         style="fill:#000000;stroke:#000000;stroke-width:0.264583px;stroke-linecap:butt;stroke-linejoin:miter;stroke-opacity:1"
         d="m 64.034072,124.19963 c -0.2516,-0.42422 -0.413997,-0.68211 -0.814424,-0.71262 -0.400427,-0.0305 -0.803656,0.33132 -1.11983,0.71262 -0.316174,0.38131 -0.535883,1.03741 -0.61082,1.52705 -0.07494,0.48964 -0.08087,0.92625 0.101804,1.32343 0.182679,0.39718 0.512924,0.74918 0.916225,0.91623 0.403301,0.16705 0.950958,0.22112 1.323441,0 0.372483,-0.22112 0.524748,-0.7823 0.610817,-1.11983 0.08607,-0.33753 0.09613,-0.74593 0.04718,-1.19185 -0.04895,-0.44592 -0.202791,-1.0308 -0.454392,-1.45503 z"
         id="path965"
         sodipodi:nodetypes="zzzzzzzzzz" />
      <path
         style="fill:#ffffff;stroke:none;stroke-width:0.264583px;stroke-linecap:butt;stroke-linejoin:miter;stroke-opacity:1"
         d="m 63.188299,119.22906 c 0,0 2.940594,0.48753 4.07212,1.41035 1.131526,0.92282 2.08797,1.72106 2.443271,3.05409 0.355301,1.33303 0.561345,2.79951 0.610819,4.27573 0.04947,1.47622 -0.281769,3.89242 -0.610819,5.49736 -0.32905,1.60494 -2.036059,4.55879 -2.036059,4.55879 1.392757,0.41272 3.063665,0.45458 4.784738,0.42955 0,0 2.334362,-4.8668 2.850483,-7.32981 0.516121,-2.46301 0.865687,-4.98842 0.305411,-7.22801 -0.560276,-2.23959 -1.895957,-4.4064 -3.359499,-5.70097 -1.463542,-1.29457 -4.777295,-1.89452 -4.777295,-1.89452 -2.536391,1.44497 -3.174881,1.9585 -4.28317,2.92744 z"
         id="path967"
         sodipodi:nodetypes="czzzzcczzzcc" />
      <path
         style="fill:#000000;stroke:none;stroke-width:0.26458300000000001px;stroke-linecap:butt;stroke-linejoin:miter;stroke-opacity:1"
         d="m 67.512987,116.34314 c 0,0 1.572661,-0.15299 2.736377,0.33025 1.163716,0.48324 2.775063,1.69634 3.77431,2.97227 0.999247,1.27593 1.684173,2.84872 2.028693,4.48199 0.34452,1.63327 0.193667,3.31051 -0.04718,5.09532 -0.240847,1.78481 -0.895501,3.9724 -1.462545,5.51993 -0.567044,1.54753 -1.792798,3.77432 -1.792798,3.77432 l -1.226651,-0.0472 c 0,0 1.483067,-2.37144 2.075871,-4.15175 0.592804,-1.78031 1.138579,-4.44752 1.17947,-6.51068 0.04089,-2.06316 -0.142334,-4.15376 -0.80204,-5.70865 -0.659706,-1.55489 -1.724748,-2.62285 -2.689196,-3.44406 -0.964448,-0.82121 -2.019323,-1.28272 -2.830734,-1.5569 -0.811411,-0.27418 -1.887157,-0.28307 -1.887157,-0.28307 z"
         id="path973"
         sodipodi:nodetypes="czzzzzcczzzzzcc" />
      <path
         style="fill:#000000;stroke:none;stroke-width:0.26458300000000001px;stroke-linecap:butt;stroke-linejoin:miter;stroke-opacity:1"
         d="m 67.512987,116.34314 c 0,0 1.572661,-0.15299 2.736377,0.33025 1.163716,0.48324 2.775063,1.69634 3.77431,2.97227 0.999247,1.27593 1.684173,2.84872 2.028693,4.48199 0.34452,1.63327 0.193667,3.31051 -0.04718,5.09532 -0.240847,1.78481 -0.895501,3.9724 -1.462545,5.51993 -0.567044,1.54753 -1.792798,3.77432 -1.792798,3.77432 l -1.226651,-0.0472 c 0,0 1.483067,-2.37144 2.075871,-4.15175 0.592804,-1.78031 1.138579,-4.44752 1.17947,-6.51068 0.04089,-2.06316 -0.142334,-4.15376 -0.80204,-5.70865 -0.659706,-1.55489 -1.724748,-2.62285 -2.689196,-3.44406 -0.964448,-0.82121 -2.019323,-1.28272 -2.830734,-1.5569 -0.811411,-0.27418 -1.887157,-0.28307 -1.887157,-0.28307 z"
         id="path975"
         sodipodi:nodetypes="czzzzzcczzzzzcc" />
      <path
         style="fill:#000000;stroke:none;stroke-width:0.26458300000000001px;stroke-linecap:butt;stroke-linejoin:miter;stroke-opacity:1"
         d="m 67.512987,116.34314 c 0,0 1.572661,-0.15299 2.736377,0.33025 1.163716,0.48324 2.775063,1.69634 3.77431,2.97227 0.999247,1.27593 1.684173,2.84872 2.028693,4.48199 0.34452,1.63327 0.193667,3.31051 -0.04718,5.09532 -0.240847,1.78481 -0.895501,3.9724 -1.462545,5.51993 -0.567044,1.54753 -1.792798,3.77432 -1.792798,3.77432 l -1.226651,-0.0472 c 0,0 1.483067,-2.37144 2.075871,-4.15175 0.592804,-1.78031 1.138579,-4.44752 1.17947,-6.51068 0.04089,-2.06316 -0.142334,-4.15376 -0.80204,-5.70865 -0.659706,-1.55489 -1.724748,-2.62285 -2.689196,-3.44406 -0.964448,-0.82121 -2.019323,-1.28272 -2.830734,-1.5569 -0.811411,-0.27418 -1.887157,-0.28307 -1.887157,-0.28307 z"
         id="path977"
         sodipodi:nodetypes="czzzzzcczzzzzcc" />
      <path
         style="fill:#000000;stroke:none;stroke-width:0.243822px;stroke-linecap:butt;stroke-linejoin:miter;stroke-opacity:1"
         d="m 63.188299,119.22906 c 0,0 1.360319,-0.0472 2.524035,0.36321 1.163716,0.41037 2.775063,1.44058 3.77431,2.52413 0.999247,1.08355 1.684173,2.41919 2.028693,3.80621 0.34452,1.38701 0.193667,2.81137 -0.04718,4.32707 -0.240847,1.51571 -0.895501,3.37347 -1.462545,4.68767 -0.567044,1.3142 -1.792798,3.20524 -1.792798,3.20524 l -1.226651,-0.04 c 0,0 1.483067,-2.01389 2.075871,-3.52577 0.592804,-1.51189 1.138579,-3.77695 1.17947,-5.52903 0.04089,-1.75209 -0.142334,-3.52748 -0.80204,-4.84794 -0.659706,-1.32044 -1.724748,-2.22738 -2.689196,-2.92477 -0.964448,-0.6974 -2.019323,-1.08932 -2.830734,-1.32216 -0.811411,-0.23285 -1.388947,-0.11584 -1.388947,-0.11584 z"
         id="path979"
         sodipodi:nodetypes="czzzzzcczzzzzcc" />
      <path
         style="fill:#000000;stroke:#000000;stroke-width:0.264583px;stroke-linecap:butt;stroke-linejoin:miter;stroke-opacity:1"
         d="m 66.053943,113.31921 c 0,0 0.215005,-0.8417 0.763288,-1.40915 0.548283,-0.56745 1.533895,-1.12828 2.700872,-1.5853 1.166977,-0.45702 2.834407,-0.82175 4.286168,-0.93943 1.451761,-0.11768 2.819817,-0.0669 4.344882,0.23486 1.525065,0.30175 3.39895,1.11232 4.697169,1.64401 1.298219,0.53169 2.667393,0.0386 3.111875,1.46786 0.444482,1.42922 -0.424188,5.29683 -0.481018,4.9008 0,0 0.1316,-2.32767 -0.04448,-3.76435 -0.118697,-0.96849 -0.490466,-1.19232 -0.707515,-1.31259 -0.539026,-0.29868 -1.297502,-0.27951 -1.878867,-0.52844 -0.581365,-0.24893 -0.923285,-0.74886 -1.585294,-0.93943 -0.662009,-0.19057 -1.468816,0.16264 -2.28987,-0.0587 -0.821054,-0.22134 -1.433921,-1.23503 -2.466015,-1.35044 -1.032094,-0.11541 -2.240459,0.78202 -3.288017,0.93943 -1.047558,0.15741 -2.041173,-0.29169 -2.935732,0.0587 -0.894559,0.35039 -1.386715,1.44644 -2.113727,1.87887 -0.727012,0.43243 -2.11372,0.7633 -2.11372,0.7633 z"
         id="path981"
         sodipodi:nodetypes="czzzzzzcsszzzzzzzc" />
      <path
         style="fill:none;stroke:#000000;stroke-width:0.665;stroke-linecap:round;stroke-linejoin:miter;stroke-miterlimit:4;stroke-dasharray:none;stroke-opacity:1"
         d="m 98.474482,120.36496 c 0,0 1.298673,1.07329 1.692648,2.05501 0.39397,0.98173 0.40669,2.4428 0.46972,3.75773 0.063,1.31494 0.14548,3.0634 -0.11743,4.11003 -0.26291,1.04664 -0.890793,1.78158 -0.890793,1.78158"
         id="path999"
         sodipodi:nodetypes="czzzc" />
      <path
         style="fill:#ffffff;stroke:none;stroke-width:0.26458300000000001px;stroke-linecap:butt;stroke-linejoin:miter;stroke-opacity:1"
         d="m 85.276951,117.95122 c 0,0 -0.421374,2.3582 -0.539729,3.27989 -0.118355,0.92169 -0.315443,1.40957 -0.207587,2.24194 0.107856,0.83237 0.563837,1.63807 0.954903,2.6156 0.391066,0.97753 0.997974,2.19919 1.411594,3.23837 0.41362,1.03918 0.764073,2.23163 1.079455,2.98926 0.315382,0.75763 0.747316,1.57766 0.747316,1.57766 l -2.823189,1.37008 c 0,0 -1.276071,-1.07884 -2.200429,-2.36649 -0.924358,-1.28765 -2.501205,-3.59511 -2.989259,-5.52183 -0.488054,-1.92672 -0.222221,-4.15042 0,-5.64638 0.222221,-1.49596 0.749987,-2.50616 0.996418,-3.27988 0.246431,-0.77372 0.456694,-1.37008 0.456694,-1.37008 z"
         id="path1001"
         sodipodi:nodetypes="czzzzzcczzzzcc" />
      <path
         style="fill:#000000;stroke:none;stroke-width:0.26458300000000001px;stroke-linecap:butt;stroke-linejoin:miter;stroke-opacity:1"
         d="m 85.547194,117.95766 c 0,0 -0.731432,2.66375 -0.763289,3.87517 -0.03186,1.21142 0.105853,1.98641 0.469715,3.28802 0.363862,1.30161 1.252379,2.96512 1.87887,4.40359 0.626491,1.43847 1.878867,4.22745 1.878867,4.22745 l -0.528431,0.23486 c 0,0 -1.312427,-2.4191 -1.996298,-3.93388 -0.683871,-1.51478 -1.696848,-3.70296 -2.05501,-5.16688 -0.358162,-1.46392 -0.366463,-2.34135 -0.35229,-3.46416 0.01417,-1.12281 0.23054,-2.59363 0.411003,-3.22931 0.180463,-0.63568 0.293574,-0.64586 0.293574,-0.64586 z"
         id="path1003"
         sodipodi:nodetypes="czzzcczzzzcc" />
      <path
         style="fill:#000000;stroke:none;stroke-width:0.26458300000000001px;stroke-linecap:butt;stroke-linejoin:miter;stroke-opacity:1"
         d="m 82.317891,117.19437 c 0,0 -0.944629,2.46956 -1.233006,3.93388 -0.288377,1.46432 -0.553432,3.48445 -0.411004,4.8146 0.142428,1.33015 0.451954,1.95258 0.939435,3.05316 0.487481,1.10058 1.294815,2.41521 2.055011,3.46416 0.760196,1.04895 2.466014,2.8183 2.466014,2.8183 l -0.763291,0.41101 c 0,0 -2.291777,-2.45381 -3.170589,-3.87517 -0.878812,-1.42136 -1.684399,-2.99264 -2.055011,-4.57974 -0.370612,-1.5871 -0.270015,-3.32064 -0.176144,-4.75588 0.09387,-1.43524 0.336914,-2.87039 0.645861,-3.81645 0.308947,-0.94606 0.939432,-1.87887 0.939432,-1.87887 z"
         id="path1005"
         sodipodi:nodetypes="czzzzcczzzzcc" />
      <path
         style="fill:#ff7f2a;stroke:none;stroke-width:0.26458300000000001px;stroke-linecap:butt;stroke-linejoin:miter;stroke-opacity:1"
         d="m 75.294704,133.87844 c 0,0 1.927737,6.33625 3.868512,6.9226 1.940775,0.58635 2.784348,-0.75112 3.766712,-1.93425 0.982364,-1.18313 1.424848,-3.29772 1.425241,-4.78474 3.93e-4,-1.48702 -0.318496,-2.96611 -1.119833,-3.76671 -0.801337,-0.8006 -1.648691,-0.98481 -2.748679,-0.81442 -1.099988,0.17039 -2.29565,1.78923 -3.155895,2.13786 -0.860245,0.34863 -1.73065,0.30541 -1.73065,0.30541 z"
         id="path961"
         sodipodi:nodetypes="czzzzzzcc" />
      <path
         style="fill:#ffffff;stroke:#000000;stroke-width:0.665;stroke-linecap:butt;stroke-linejoin:miter;stroke-opacity:1;stroke-miterlimit:4;stroke-dasharray:none"
         d="m 94.139543,122.91824 c 0,0 -0.79197,1.90513 -0.940843,2.82252 -0.148873,0.91739 -0.114017,1.86817 0,2.60116 0.114017,0.73299 0.561843,1.76229 0.561843,1.76229 l -1.558028,1.33695 c 0,0 -1.218633,-3.37396 -1.328248,-4.75955 -0.109615,-1.38559 0.114663,-2.49606 0.387405,-3.37596 0.272742,-0.8799 0.996188,-1.88169 0.996188,-1.88169 z"
         id="path1007"
         sodipodi:nodetypes="czzcczzcc" />
      <path
         style="fill:#000000;stroke:#000000;stroke-width:0.26458300000000001px;stroke-linecap:butt;stroke-linejoin:miter;stroke-opacity:1"
         d="m 92.368546,121.42396 0.332063,-1.43893 -0.553437,-1.49428 -1.21756,-1.16222 -1.328248,-0.60878 -0.940842,0.33206 -0.719468,0.66413 -0.60878,0.83015 0.387405,0.33206 0.442752,-1.2729 1.217559,-0.60878 1.21756,0.49809 1.494279,1.49428 0.33206,1.43893 z"
         id="path1009" />
      <path
         style="fill:#ffffff;stroke:none;stroke-width:0.264583px;stroke-linecap:butt;stroke-linejoin:miter;stroke-opacity:1"
         d="m 92.645266,121.31328 -0.498094,0.99618 1.549622,0.8855 0.498091,-0.60878 z"
         id="path1011"
         sodipodi:nodetypes="ccccc" />
      <path
         style="fill:#ffffff;stroke:none;stroke-width:0.26458300000000001px;stroke-linecap:butt;stroke-linejoin:miter;stroke-opacity:1;fill-opacity:1"
         d="m 93.862825,130.55566 -0.608779,-0.71947 -0.940843,0.94085 0.387406,0.71946 z"
         id="path1013" />
    </g>
    <path
       style="fill:#1a1a1a;fill-opacity:1;stroke:none;stroke-width:0.26458300000000001px;stroke-linecap:butt;stroke-linejoin:miter;stroke-opacity:1"
       d="m 69.885617,172.44929 c 0.104855,-1.31934 0.718754,-3.45379 2.34147,-5.70097 1.622716,-2.24718 4.640869,-5.47403 7.940632,-6.8208 3.299763,-1.34677 7.066332,-1.20594 10.892917,-0.71262 3.826585,0.49332 9.011154,2.49662 11.605544,3.86851 2.59438,1.37189 4.27572,3.2577 4.27572,3.2577 0,0 1.03493,-0.72969 1.73065,-1.22164 0.69572,-0.49195 1.56348,-1.80521 2.44327,-1.73065 0.87979,0.0746 1.13404,0.67684 1.62885,1.62885 0.49481,0.95201 0.59332,2.52221 0.71262,4.07212 0.1193,1.54991 0.34072,4.04837 -0.1018,5.19195 -0.44252,1.14358 -0.122,1.35137 -1.42524,1.62885 -1.30325,0.27748 -5.29376,-2.44327 -5.29376,-2.44327 0,0 -2.77706,2.50089 -4.98834,3.76671 -2.211282,1.26582 -5.453968,2.69328 -8.347848,3.4613 -2.89388,0.76802 -5.883342,1.22304 -8.856858,1.11983 -2.973516,-0.10321 -6.623494,-0.62872 -8.755057,-1.73065 -2.131563,-1.10193 -3.106978,-2.74142 -3.970316,-3.76671 -0.863338,-1.02529 -1.136731,-1.47323 -1.425242,-2.13786 -0.288511,-0.66463 -0.512067,-0.41131 -0.407212,-1.73065 z"
       id="path955-0"
       sodipodi:nodetypes="zzzzzczzzzzzczzzzzzz" />
    <path
       style="fill:#000000;fill-opacity:1;stroke:none;stroke-width:0.21255099999999999px;stroke-linecap:butt;stroke-linejoin:miter;stroke-opacity:1"
       d="m 78.06959,161.24352 c 0,0 0.128938,-2.27732 0.712621,-3.02219 0.583683,-0.74486 0.990231,-0.93829 2.137862,-1.37969 1.147631,-0.44139 3.085834,-0.77073 4.784741,-0.9198 1.698907,-0.14907 3.719802,-0.10524 5.293754,0.0657 1.573952,0.17095 2.780907,0.52349 4.07212,0.8541 1.291213,0.33061 3.181005,0.76489 3.664906,1.1169 0.483901,0.352 9.63e-4,-0.12754 0.101803,0.19709 0.10084,0.32463 0.329547,1.24781 0.203605,1.7739 -0.125942,0.52608 -0.814422,1.31399 -0.814422,1.31399 0,0 -5.936772,-1.10017 -8.347845,-1.31399 -2.411073,-0.21382 -4.365347,-0.25378 -6.006375,-0.13141 -1.641028,0.12238 -2.804132,0.39275 -3.766711,0.657 -0.962579,0.26425 -2.036059,0.7884 -2.036059,0.7884 z"
       id="path957-9"
       sodipodi:nodetypes="czzzzzzzzczzzc" />
    <path
       style="fill:#1a1a1a;stroke:none;stroke-width:0.264583px;stroke-linecap:butt;stroke-linejoin:miter;stroke-opacity:1"
       d="m 100.40298,161.94005 c 0,0 0.73185,-1.53224 1.52704,-1.73065 0.7952,-0.19841 1.81507,0.41772 2.44327,0.91622 0.62821,0.4985 1.05046,1.14537 1.22164,1.83246 0.17118,0.68709 -0.2036,2.03606 -0.2036,2.03606 z"
       id="path959-2"
       sodipodi:nodetypes="czzzcc" />
    <path
       style="fill:#ffffff;stroke:none;stroke-width:0.264583px;stroke-linecap:butt;stroke-linejoin:miter;stroke-opacity:1"
       d="m 76.910022,165.52669 c -0.822314,0.2149 -1.839862,0.77324 -2.341467,1.42523 -0.501605,0.65199 -0.853466,1.78873 -0.509016,2.74868 0.34445,0.95995 1.399195,1.85746 2.545075,2.13787 1.14588,0.28041 2.825292,-0.0819 3.664908,-0.81443 0.839616,-0.73252 1.161572,-1.76152 1.018029,-2.74868 -0.143543,-0.98716 -0.921134,-2.02618 -1.832454,-2.44327 -0.91132,-0.41709 -1.722761,-0.52031 -2.545075,-0.3054 z"
       id="path963-4"
       sodipodi:nodetypes="zzzzzzzz" />
    <path
       style="fill:#000000;stroke:#000000;stroke-width:0.264583px;stroke-linecap:butt;stroke-linejoin:miter;stroke-opacity:1"
       d="m 76.910022,167.56274 c -0.2516,-0.42422 -0.413997,-0.68211 -0.814424,-0.71262 -0.400427,-0.0305 -0.803656,0.33132 -1.11983,0.71262 -0.316174,0.38131 -0.535883,1.03741 -0.61082,1.52705 -0.07494,0.48964 -0.08087,0.92625 0.101804,1.32343 0.182679,0.39718 0.512924,0.74918 0.916225,0.91623 0.403301,0.16705 0.950958,0.22112 1.323441,0 0.372483,-0.22112 0.524748,-0.7823 0.610817,-1.11983 0.08607,-0.33753 0.09613,-0.74593 0.04718,-1.19185 -0.04895,-0.44592 -0.202791,-1.0308 -0.454393,-1.45503 z"
       id="path965-3"
       sodipodi:nodetypes="zzzzzzzzzz" />
    <path
       style="fill:none;stroke:#000000;stroke-width:0.665;stroke-linecap:round;stroke-linejoin:miter;stroke-miterlimit:4;stroke-dasharray:none;stroke-opacity:1"
       d="m 111.35043,163.72807 c 0,0 1.29867,1.07329 1.69265,2.05501 0.39397,0.98173 0.40669,2.4428 0.46972,3.75773 0.063,1.31494 0.14548,3.0634 -0.11743,4.11003 -0.26291,1.04664 -0.89079,1.78158 -0.89079,1.78158"
       id="path999-4"
       sodipodi:nodetypes="czzzc" />
    <path
       style="fill:#1a1a1a;stroke:none;stroke-width:0.264583px;stroke-linecap:butt;stroke-linejoin:miter;stroke-opacity:1"
       d="m 88.796796,189.68612 c 0,0 1.927737,6.33625 3.868512,6.9226 1.940775,0.58635 2.784348,-0.75112 3.766712,-1.93425 0.982364,-1.18313 1.424848,-3.29772 1.425241,-4.78474 3.93e-4,-1.48702 -0.318496,-2.96611 -1.119833,-3.76671 -0.801337,-0.8006 -1.648691,-0.98481 -2.748679,-0.81442 -1.099988,0.17039 -2.29565,1.78923 -3.155895,2.13786 -0.860245,0.34863 -1.73065,0.30541 -1.73065,0.30541 z"
       id="path961-2"
       sodipodi:nodetypes="czzzzzzcc" />
    <path
       style="fill:#000000;stroke:#000000;stroke-width:0.264583px;stroke-linecap:butt;stroke-linejoin:miter;stroke-opacity:1"
       d="m 36.501816,215.02059 c -2.80255,2.3823 -4.006087,4.74116 -4.559846,6.98227 -0.553759,2.24111 -0.595171,4.94542 -0.142494,6.83977 0.452677,1.89435 0.924257,2.94151 2.279923,4.27486 1.355666,1.33335 3.514002,2.40837 5.842304,2.9924 2.328302,0.58403 5.584058,0.46038 7.837238,0.14249 2.25318,-0.31789 3.919539,-0.62701 5.557314,-1.70994 1.637775,-1.08293 2.970852,-2.40349 3.84737,-4.55985 0.876518,-2.15636 1.177817,-5.41824 0.569981,-7.97973 -0.607836,-2.56149 -1.938527,-5.06558 -3.989866,-6.69728 -2.051339,-1.6317 -5.231043,-2.22641 -7.552248,-2.42242 -3.119334,-0.0421 -6.887126,-0.24487 -9.689676,2.13743 z"
       id="path1243"
       sodipodi:nodetypes="zzzzzzzzzzcz" />
    <path
       style="fill:#f2f2f2;stroke:#000000;stroke-width:0.264583px;stroke-linecap:butt;stroke-linejoin:miter;stroke-opacity:1"
       d="m 54.741206,219.29545 c -2.433946,-0.59371 -8.456448,-0.67057 -10.68714,0 -1.690617,0.55225 -2.468281,1.11355 -3.419888,2.27993 -0.951607,1.16638 -1.732133,2.93758 -1.852438,4.55984 -0.120305,1.62226 0.07792,3.47016 1.139963,4.70234 1.062045,1.23218 2.927555,1.46247 4.559847,1.85244 1.632292,0.38997 3.446985,0.55221 5.129829,0.42749 1.682844,-0.12472 3.56647,-0.18544 4.844836,-1.13997 1.278366,-0.95453 1.885613,-2.41735 2.279925,-3.98986 0.394312,-1.57251 0.240054,-3.6541 -0.142497,-5.12983 -0.382551,-1.47573 -0.715259,-2.81723 -1.852437,-3.56238 z"
       id="path1245"
       sodipodi:nodetypes="cczzzzzzzzc" />
    <path
       style="fill:#ffffff;stroke:none;stroke-width:0.264583px;stroke-linecap:butt;stroke-linejoin:miter;stroke-opacity:1"
       d="m 40.925056,225.38766 0.714573,-2.46131 1.587945,-1.42915 2.302517,-0.95277 h 1.587945 l -0.238191,0.39699 -2.302518,0.63517 -1.826136,1.19096 -1.111562,1.66734 z"
       id="path1249" />
    <path
       style="fill:#ffffff;fill-opacity:0.459677;stroke:none;stroke-width:0.356208px;stroke-linecap:butt;stroke-linejoin:miter;stroke-opacity:1"
       d="m 34.528423,220.61818 c 0,0 0.685564,-2.28221 1.215386,-3.23315 0.529822,-0.95094 1.173069,-1.47152 1.99511,-2.06172 0.822041,-0.5902 2.0478,-1.18393 2.892906,-1.37449 0.845106,-0.19056 1.995111,0 1.995111,0 0,0 0.170717,0.17844 -0.299266,0.57271 -0.469983,0.39427 -2.018187,0.46674 -2.892907,0.91631 -0.87472,0.44957 -1.668734,1.01482 -2.294376,1.7181 -0.848586,1.25494 -1.762464,2.20879 -2.611964,3.46224 z"
       id="path1251"
       sodipodi:nodetypes="czzzczzcc" />
    <path
       style="fill:#000000;stroke:#000000;stroke-width:0.264583px;stroke-linecap:butt;stroke-linejoin:miter;stroke-opacity:1"
       d="m 39.575302,236.10628 -1.66734,9.68646 c 0,0 1.827869,1.45052 6.192981,1.50854 4.365112,0.058 6.669364,-1.19095 6.669364,-1.19095 L 49.182363,235.4711 Z"
       id="path1253"
       sodipodi:nodetypes="cczccc" />
    <path
       style="fill:#b3b3b3;stroke:none;stroke-width:0.195737px;stroke-linecap:butt;stroke-linejoin:miter;stroke-opacity:1"
       d="m 39.225328,249.173 c 0,0 -0.690901,4.04809 -1.340053,5.61265 -0.649152,1.56455 -2.553133,2.93485 -2.27809,3.75892 0.275043,0.82406 0.620491,0.50838 1.00504,0.56641 0.384549,0.058 0.72803,-0.31072 1.072041,-0.20597 0.344012,0.10476 0.20029,0.66522 0.603026,0.7209 0.402737,0.0556 0.667404,-0.63322 1.072042,-0.6179 0.404637,0.0153 0.488096,0.51463 0.804032,0.56641 0.315936,0.0518 0.48878,-0.22319 0.804031,-0.20597 0.31525,0.0172 0.594027,0.40334 0.938038,0.36043 0.344011,-0.0429 0.358724,-0.007 0.737028,-0.56641 0.378304,-0.55907 0.693191,-1.66767 0.670027,-2.93505 -0.02316,-1.26737 -0.798217,-3.37612 -1.206048,-4.5313 -0.407831,-1.15518 -1.072041,-2.42013 -1.072041,-2.42013 -0.603024,-0.83714 -1.206049,-0.61809 -1.809073,-0.10299 z"
       id="path1257"
       sodipodi:nodetypes="czzzzzzzzzzzzcc" />
    <path
       style="fill:#000000;stroke:#000000;stroke-width:0.264583px;stroke-linecap:butt;stroke-linejoin:miter;stroke-opacity:1"
       d="m 39.542915,246.64403 -0.317587,2.9377 c 0.688109,0.47224 1.376218,1.38677 2.064327,0.31759 v -3.33469 c -0.582247,-1.6164 -1.164493,-1.29552 -1.74674,0.0794 z"
       id="path1255"
       sodipodi:nodetypes="ccccc" />
    <path
       style="fill:#b3b3b3;stroke:none;stroke-width:0.264583px;stroke-linecap:butt;stroke-linejoin:miter;stroke-opacity:1"
       d="m 39.575302,239.28217 c -0.534995,-0.37702 -0.852448,-0.62328 -1.587944,-0.39699 -0.735496,0.22629 -1.979032,1.3231 -1.984931,2.22313 -0.0059,0.90003 0.887649,1.46238 1.587945,1.82613 0.700296,0.36375 1.645589,0.60573 2.30252,0.23819 0.656931,-0.36754 1.005309,-1.23812 0.952765,-1.98493 -0.05254,-0.74681 -0.73536,-1.52851 -1.270355,-1.90553 z"
       id="path1271"
       sodipodi:nodetypes="zzzzzzz" />
    <path
       style="fill:#1a1a1a;stroke:none;stroke-width:0.264583px;stroke-linecap:butt;stroke-linejoin:miter;stroke-opacity:1"
       d="m 32.866691,245.08372 c 0,0 2.246743,0.84286 3.106984,1.01158 0.860241,0.16872 1.987026,0.14451 1.987026,0.14451 l -0.108384,1.19222 c 0,0 -2.486831,-0.18149 -3.359877,-0.39741 -0.873046,-0.21592 -1.878643,-0.72255 -1.878643,-0.72255 z"
       id="path1299"
       sodipodi:nodetypes="czcczcc" />
    <path
       style="fill:#b3b3b3;stroke:none;stroke-width:0.195737px;stroke-linecap:butt;stroke-linejoin:miter;stroke-opacity:1"
       d="m 47.502282,249.99048 c 0,0 -0.690901,4.04809 -1.340053,5.61265 -0.649152,1.56455 -2.553133,2.93485 -2.27809,3.75892 0.275043,0.82406 0.620491,0.50838 1.00504,0.56641 0.384549,0.058 0.72803,-0.31072 1.072041,-0.20597 0.344012,0.10476 0.20029,0.66522 0.603026,0.7209 0.402737,0.0556 0.667404,-0.63322 1.072042,-0.6179 0.404637,0.0153 0.488096,0.51463 0.804032,0.56641 0.315936,0.0518 0.48878,-0.22319 0.804031,-0.20597 0.31525,0.0172 0.594027,0.40334 0.938038,0.36043 0.344011,-0.0429 0.358724,-0.007 0.737028,-0.56641 0.378304,-0.55907 0.693191,-1.66767 0.670027,-2.93505 -0.02316,-1.26737 -0.798217,-3.37612 -1.206048,-4.5313 -0.407831,-1.15518 -1.072041,-2.42013 -1.072041,-2.42013 -0.603024,-0.83714 -1.206049,-0.61809 -1.809073,-0.10299 z"
       id="path1309"
       sodipodi:nodetypes="czzzzzzzzzzzzcc" />
    <path
       style="fill:#000000;stroke:#000000;stroke-width:0.264583px;stroke-linecap:butt;stroke-linejoin:miter;stroke-opacity:1"
       d="m 47.819869,247.46151 -0.317587,2.9377 c 0.688109,0.47224 1.376218,1.38677 2.064327,0.31759 v -3.33469 c -0.582247,-1.6164 -1.164493,-1.29552 -1.74674,0.0794 z"
       id="path1307"
       sodipodi:nodetypes="ccccc" />
    <path
       style="fill:url(#linearGradient1337);fill-opacity:1;stroke:none;stroke-width:0.264583px;stroke-linecap:butt;stroke-linejoin:miter;stroke-opacity:1"
       d="m 90.762074,239.19629 -2.461313,-1.74674 c 0,0 -1.192898,0.1656 -1.984928,1.03216 -0.79203,0.86656 -1.298088,2.59196 -1.826136,4.44624 -0.528048,1.85428 -1.111562,6.66937 -1.111562,6.66937 l 5.240216,1.03216 z"
       id="path1311"
       sodipodi:nodetypes="cczzccc"
       inkscape:export-filename="/Users/jh/code/my/games/LD48/Components/Player/body.png"
       inkscape:export-xdpi="122"
       inkscape:export-ydpi="122" />
    <path
       style="fill:#b3b3b3;stroke:none;stroke-width:0.264583px;stroke-linecap:butt;stroke-linejoin:miter;stroke-opacity:1"
       d="m 106.95529,242.14581 c -0.535,-0.37702 -0.85245,-0.62328 -1.58795,-0.39699 -0.73549,0.22629 -1.97903,1.3231 -1.98493,2.22313 -0.006,0.90003 0.88765,1.46238 1.58795,1.82613 0.70029,0.36375 1.64559,0.60573 2.30252,0.23819 0.65693,-0.36754 1.00531,-1.23812 0.95276,-1.98493 -0.0525,-0.74681 -0.73536,-1.52851 -1.27035,-1.90553 z"
       id="path1313"
       sodipodi:nodetypes="zzzzzzz" />
    <path
       style="fill:#000000;stroke:#000000;stroke-width:0.264583px;stroke-linecap:butt;stroke-linejoin:miter;stroke-opacity:1"
       d="m 87.212205,218.18999 c -2.80255,2.3823 -4.006087,4.74116 -4.559846,6.98227 -0.553759,2.24111 -0.595171,4.94542 -0.142494,6.83977 0.452677,1.89435 0.924257,2.94151 2.279923,4.27486 1.355666,1.33335 3.514002,2.40837 5.842304,2.9924 2.328302,0.58403 5.584058,0.46038 7.837238,0.14249 2.25318,-0.31789 3.91954,-0.62701 5.55731,-1.70994 1.63778,-1.08293 2.97086,-2.40349 3.84737,-4.55985 0.87652,-2.15636 1.17782,-5.41824 0.56999,-7.97973 -0.60784,-2.56149 -1.93853,-5.06558 -3.98987,-6.69728 -2.05134,-1.6317 -5.231044,-2.22641 -7.552249,-2.42242 -3.119334,-0.0421 -6.887126,-0.24487 -9.689676,2.13743 z"
       id="path1315"
       sodipodi:nodetypes="zzzzzzzzzzcz"
       inkscape:export-filename="/Users/jh/code/my/games/LD48/Components/Player/body.png"
       inkscape:export-xdpi="122"
       inkscape:export-ydpi="122" />
    <path
       style="fill:#f2f2f2;stroke:#000000;stroke-width:0.264583px;stroke-linecap:butt;stroke-linejoin:miter;stroke-opacity:1"
       d="m 105.4516,222.46485 c -2.43395,-0.59371 -8.456453,-0.67057 -10.687145,0 -1.690617,0.55225 -2.468281,1.11355 -3.419888,2.27993 -0.951607,1.16638 -1.732133,2.93758 -1.852438,4.55984 -0.120305,1.62226 0.07792,3.47016 1.139963,4.70234 1.062045,1.23218 2.927555,1.46247 4.559847,1.85244 1.632292,0.38997 3.446985,0.55221 5.129831,0.42749 1.68284,-0.12472 3.56647,-0.18544 4.84483,-1.13997 1.27837,-0.95453 1.88562,-2.41735 2.27993,-3.98986 0.39431,-1.57251 0.24005,-3.6541 -0.1425,-5.12983 -0.38255,-1.47573 -0.71526,-2.81723 -1.85243,-3.56238 z"
       id="path1317"
       sodipodi:nodetypes="cczzzzzzzzc"
       inkscape:export-filename="/Users/jh/code/my/games/LD48/Components/Player/body.png"
       inkscape:export-xdpi="122"
       inkscape:export-ydpi="122" />
    <path
       style="fill:#ffffff;stroke:none;stroke-width:0.264583px;stroke-linecap:butt;stroke-linejoin:miter;stroke-opacity:1"
       d="m 91.635445,228.55706 0.714573,-2.46131 1.587945,-1.42915 2.302517,-0.95277 h 1.587945 l -0.238191,0.39699 -2.302518,0.63517 -1.826136,1.19096 -1.111562,1.66734 z"
       id="path1319"
       inkscape:export-filename="/Users/jh/code/my/games/LD48/Components/Player/body.png"
       inkscape:export-xdpi="122"
       inkscape:export-ydpi="122" />
    <path
       style="fill:#ffffff;fill-opacity:0.459677;stroke:none;stroke-width:0.356208px;stroke-linecap:butt;stroke-linejoin:miter;stroke-opacity:1"
       d="m 85.238812,223.78758 c 0,0 0.685564,-2.28221 1.215386,-3.23315 0.529822,-0.95094 1.173069,-1.47152 1.99511,-2.06172 0.822041,-0.5902 2.0478,-1.18393 2.892906,-1.37449 0.845106,-0.19056 1.995111,0 1.995111,0 0,0 0.170717,0.17844 -0.299266,0.57271 -0.469983,0.39427 -2.018187,0.46674 -2.892907,0.91631 -0.87472,0.44957 -1.668734,1.01482 -2.294376,1.7181 -0.848586,1.25494 -1.762464,2.20879 -2.611964,3.46224 z"
       id="path1321"
       sodipodi:nodetypes="czzzczzcc"
       inkscape:export-filename="/Users/jh/code/my/games/LD48/Components/Player/body.png"
       inkscape:export-xdpi="122"
       inkscape:export-ydpi="122" />
    <path
       style="fill:#000000;stroke:#000000;stroke-width:0.264583px;stroke-linecap:butt;stroke-linejoin:miter;stroke-opacity:1"
       d="m 90.285691,239.27568 -1.66734,9.68646 c 0,0 1.827869,1.45052 6.192981,1.50854 4.365112,0.058 6.669368,-1.19095 6.669368,-1.19095 L 99.892752,238.6405 Z"
       id="path1323"
       sodipodi:nodetypes="cczccc"
       inkscape:export-filename="/Users/jh/code/my/games/LD48/Components/Player/body.png"
       inkscape:export-xdpi="122"
       inkscape:export-ydpi="122" />
    <g
       id="g1341"
       inkscape:export-filename="/Users/jh/code/my/games/LD48/Components/Player/leg.png"
       inkscape:export-xdpi="122"
       inkscape:export-ydpi="122">
      <path
         style="fill:#b3b3b3;stroke:none;stroke-width:0.195737px;stroke-linecap:butt;stroke-linejoin:miter;stroke-opacity:1"
         d="m 88.144317,257.441 c 0,0 -0.690901,4.04809 -1.340053,5.61265 -0.649152,1.56455 -2.553133,2.93485 -2.27809,3.75892 0.275043,0.82406 0.620491,0.50838 1.00504,0.56641 0.384549,0.058 0.72803,-0.31072 1.072041,-0.20597 0.344012,0.10476 0.20029,0.66522 0.603026,0.7209 0.402737,0.0556 0.667404,-0.63322 1.072042,-0.6179 0.404637,0.0153 0.488096,0.51463 0.804032,0.56641 0.315936,0.0518 0.48878,-0.22319 0.804031,-0.20597 0.31525,0.0172 0.594027,0.40334 0.938038,0.36043 0.344011,-0.0429 0.358724,-0.007 0.737028,-0.56641 0.378304,-0.55907 0.693191,-1.66767 0.670027,-2.93505 -0.02316,-1.26737 -0.798217,-3.37612 -1.206048,-4.5313 -0.407831,-1.15518 -1.072041,-2.42013 -1.072041,-2.42013 -0.603024,-0.83714 -1.206049,-0.61809 -1.809073,-0.10299 z"
         id="path1325"
         sodipodi:nodetypes="czzzzzzzzzzzzcc" />
      <path
         style="fill:#000000;stroke:#000000;stroke-width:0.264583px;stroke-linecap:butt;stroke-linejoin:miter;stroke-opacity:1"
         d="m 88.461904,254.91203 -0.317587,2.9377 c 0.688109,0.47224 1.376218,1.38677 2.064327,0.31759 v -3.33469 c -0.582247,-1.6164 -1.164493,-1.29552 -1.74674,0.0794 z"
         id="path1327"
         sodipodi:nodetypes="ccccc" />
    </g>
    <path
       style="fill:#b3b3b3;stroke:none;stroke-width:0.264583px;stroke-linecap:butt;stroke-linejoin:miter;stroke-opacity:1"
       d="m 77.056894,249.61717 c -0.534995,-0.37702 -0.852448,-0.62328 -1.587944,-0.39699 -0.735496,0.22629 -1.979032,1.3231 -1.984931,2.22313 -0.0059,0.90003 0.887649,1.46238 1.587945,1.82613 0.700296,0.36375 1.645589,0.60573 2.30252,0.23819 0.656931,-0.36754 1.005309,-1.23812 0.952765,-1.98493 -0.05254,-0.74681 -0.73536,-1.52851 -1.270355,-1.90553 z"
       id="path1329"
       sodipodi:nodetypes="zzzzzzz"
       inkscape:export-filename="/Users/jh/code/my/games/LD48/Components/Player/hand.png"
       inkscape:export-xdpi="122.62482"
       inkscape:export-ydpi="122.62482" />
    <path
       style="fill:#1a1a1a;stroke:none;stroke-width:0.264583px;stroke-linecap:butt;stroke-linejoin:miter;stroke-opacity:1"
       d="m 83.57708,248.25312 c 0,0 2.246743,0.84286 3.106984,1.01158 0.860241,0.16872 1.987026,0.14451 1.987026,0.14451 l -0.108384,1.19222 c 0,0 -2.486831,-0.18149 -3.359877,-0.39741 -0.873046,-0.21592 -1.878643,-0.72255 -1.878643,-0.72255 z"
       id="path1331"
       sodipodi:nodetypes="czcczcc"
       inkscape:export-filename="/Users/jh/code/my/games/LD48/Components/Player/body.png"
       inkscape:export-xdpi="122"
       inkscape:export-ydpi="122" />
    <path
       style="fill:#b3b3b3;stroke:none;stroke-width:0.195737px;stroke-linecap:butt;stroke-linejoin:miter;stroke-opacity:1"
       d="m 52.490755,267.80553 c 0,0 4.100962,-0.21561 5.769933,0.0738 1.668962,0.28945 3.424188,1.84574 4.167667,1.39632 0.74347,-0.44942 0.359591,-0.71704 0.331693,-1.10494 -0.02793,-0.3879 -0.463119,-0.64195 -0.436531,-1.00057 0.0266,-0.35863 0.604942,-0.34159 0.570754,-0.74671 -0.03427,-0.40511 -0.764411,-0.51193 -0.83839,-0.91005 -0.074,-0.3981 0.394783,-0.58926 0.375866,-0.90885 -0.0189,-0.3196 -0.32515,-0.42778 -0.377631,-0.73911 -0.0525,-0.31132 0.262934,-0.66814 0.145472,-0.99431 -0.117452,-0.32618 -0.08566,-0.34842 -0.714535,-0.59454 -0.62854,-0.24619 -1.779239,-0.30975 -3.010545,-0.009 -1.231297,0.30112 -3.118166,1.52065 -4.155479,2.17238 -1.037313,0.65173 -2.12537,1.57769 -2.12537,1.57769 -0.684152,0.77225 -0.337934,1.3124 0.297096,1.78748 z"
       id="path1343"
       sodipodi:nodetypes="czzzzzzzzzzzzcc" />
    <path
       style="fill:#000000;stroke:#000000;stroke-width:0.264583px;stroke-linecap:butt;stroke-linejoin:miter;stroke-opacity:1"
       d="m 52.229468,263.58411 -0.317587,2.9377 c 0.688109,0.47224 1.376218,1.38677 2.064327,0.31759 v -3.33469 c -0.582247,-1.6164 -1.164493,-1.29552 -1.74674,0.0794 z"
       id="path1345"
       sodipodi:nodetypes="ccccc" />
    <g
       id="g1353">
      <g
         id="g1357"
         transform="rotate(61.061962,62.257398,240.41547)"
         inkscape:export-filename="/Users/jh/code/my/games/LD48/Components/Flashlight/flashlight.png"
         inkscape:export-xdpi="122"
         inkscape:export-ydpi="122">
        <path
           style="fill:#000000;stroke:none;stroke-width:0.264583px;stroke-linecap:butt;stroke-linejoin:miter;stroke-opacity:1"
           d="m 61.045386,239.49635 -2.557556,4.34895 c 0.147299,0.8173 0.869469,1.05973 1.653601,1.2402 l 2.833153,-4.48675 c 0,0 2.904536,0.77155 3.048112,-1.74187 0.143576,-2.51342 -3.373252,-3.69221 -4.685234,-2.83256 -1.311982,0.85964 -0.292076,3.47203 -0.292076,3.47203 z"
           id="path1347"
           sodipodi:nodetypes="cccczzc" />
        <path
           style="fill:#ffffff;stroke:none;stroke-width:0.264583px;stroke-linecap:butt;stroke-linejoin:miter;stroke-opacity:1"
           d="m 64.714572,236.77184 c -1.577788,-1.08776 -3.470225,-0.99435 -3.69933,0.18193 -0.02977,1.08068 0.452602,1.90491 1.239214,2.43309 0.786612,0.52817 2.638826,0.96606 3.173981,0.37116 0.375656,-0.80515 0.863923,-1.89842 -0.713865,-2.98618 z"
           id="path1349"
           sodipodi:nodetypes="zczcz" />
      </g>
      <rect
         style="fill:#000000;fill-opacity:1;stroke:none;stroke-width:0.665001;stroke-linecap:round;stroke-linejoin:bevel;stroke-miterlimit:4;stroke-dasharray:none;stroke-opacity:1"
         id="rect1361"
         width="3.96875"
         height="3.96875"
         x="11.90625"
         y="166.6875"
         inkscape:export-xdpi="640"
         inkscape:export-ydpi="640" />
      <path
         style="fill:#000000;stroke:none;stroke-width:0.264583px;stroke-linecap:butt;stroke-linejoin:miter;stroke-opacity:1"
         d="m 15.875,166.6875 h 3.96875 l -0.79375,0.79375 -1.322917,0.79375 -0.264583,0.79375 -0.79375,0.52917 -0.79375,1.05833 z"
         id="path1363"
         sodipodi:nodetypes="cccccccc"
         inkscape:export-xdpi="640"
         inkscape:export-ydpi="640" />
      <path
         style="fill:#000000;stroke:none;stroke-width:0.26458300000000001px;stroke-linecap:butt;stroke-linejoin:miter;stroke-opacity:1"
         d="m 15.875,170.65625 0.264583,0.79375 0.79375,0.26458 v 0.52917 l 0.529167,0.79375 0.529166,0.26458 0.79375,0.52917 0.529167,0.26458 0.529167,0.52917 H 15.875 v -3.96875"
         id="path1365"
         inkscape:export-xdpi="640"
         inkscape:export-ydpi="640" />
      <path
         style="fill:#000000;stroke:none;stroke-width:0.26458300000000001px;stroke-linecap:butt;stroke-linejoin:miter;stroke-opacity:1"
         d="m 19.84375,174.625 3.96875,0 0,-3.96875 -0.529167,0.26458 V 171.45 l -0.264583,0.26458 -0.529167,0.26459 -0.264583,0.26458 -0.264584,0.26458 v 0.52917 l -0.529166,0.26458 v 0.26458 l -0.529167,0.52917 H 20.6375 l -0.264584,0.26458 z"
         id="path1367"
         sodipodi:nodetypes="cccccccccccccccc"
         inkscape:export-xdpi="640"
         inkscape:export-ydpi="640" />
      <path
         style="fill:#000000;stroke:none;stroke-width:0.26458300000000001px;stroke-linecap:butt;stroke-linejoin:miter;stroke-opacity:1;fill-opacity:1"
         d="m 23.8125,170.65625 v -3.96875 h -3.96875 l 0.529166,0.52916 1.058334,0.26459 v 0.52916 l 0.264583,0.52917 H 22.225 l 0.264583,0.52917 0.529167,0.26458 v 0.79375 l 0.529166,0.26458 z"
         id="path1369"
         inkscape:export-xdpi="640"
         inkscape:export-ydpi="640" />
      <path
         style="fill:#000000;stroke:none;stroke-width:0.26458300000000001px;stroke-linecap:butt;stroke-linejoin:miter;stroke-opacity:1"
         d="M 11.90625,174.625 H 15.875 l -0.264584,0.79375 v 0.52916 0.52917 l -0.264583,0.52917 v 0.52916 L 15.610416,177.8 v 0.52916 L 15.875,178.59375 H 11.90625 V 174.625"
         id="path1379"
         inkscape:export-xdpi="640"
         inkscape:export-ydpi="640" />
      <path
         style="fill:#000000;stroke:none;stroke-width:0.26458300000000001px;stroke-linecap:butt;stroke-linejoin:miter;stroke-opacity:1"
         d="m 11.90625,170.65625 0.264583,0.52916 0.79375,-0.26458 h 0.529167 l 0.529166,0.26458 0.79375,-0.26458 h 0.264584 l 0.79375,-0.26458 v 3.96875 h -3.96875 z"
         id="path1381"
         inkscape:export-xdpi="640"
         inkscape:export-ydpi="640" />
      <path
         style="fill:#000000;stroke:none;stroke-width:0.26458300000000001px;stroke-linecap:butt;stroke-linejoin:miter;stroke-opacity:1"
         d="m 19.84375,174.625 0.264583,0.52916 v 0.26459 l -0.264583,0.52916 0.264583,0.26459 0.264583,0.52916 v 0.52917 l -0.264583,0.26458 v 0.26459 0.26458 0.26458 l -0.264583,0.26459 H 23.8125 V 174.625 h -3.96875"
         id="path1383"
         inkscape:export-xdpi="640"
         inkscape:export-ydpi="640" />
      <path
         style="fill:#000000;stroke:none;stroke-width:0.26458300000000001px;stroke-linecap:butt;stroke-linejoin:miter;stroke-opacity:1"
         d="m 15.875,174.625 h 3.96875 v 3.96875 l -0.529167,-0.26459 h -0.529167 l -0.529166,0.26459 -0.529167,-0.26459 h -0.529167 l -0.529166,-0.26458 -0.264584,0.26458 -0.529166,0.26459 z"
         id="path1385"
         inkscape:export-xdpi="640"
         inkscape:export-ydpi="640" />
      <rect
         style="fill:url(#linearGradient1395);fill-opacity:1;stroke:none;stroke-width:0.0977799;stroke-linecap:round;stroke-linejoin:bevel;stroke-miterlimit:4;stroke-dasharray:none;stroke-opacity:1"
         id="rect1387"
         width="3.6609664"
         height="1068.9166"
         x="-402.16666"
         y="-31.75"
         inkscape:export-xdpi="237.62378"
         inkscape:export-ydpi="237.62378" />
    </g>
  </g>
</svg>
